<?xml version="1.0" encoding="UTF-8"?> <svg xmlns="http://www.w3.org/2000/svg" width="96" height="96" viewBox="0 0 96 96" fill="none"><circle cx="48" cy="48" r="48" fill="white"></circle><path d="M54.1098 36.2416H40.8496V60.0647H54.1098V36.2416Z" fill="#FF5A00"></path><path d="M41.7329 48.153C41.7329 43.3129 44.0083 39.0171 47.4999 36.2415C44.9302 34.2211 41.6888 33 38.153 33C29.7772 33 23 39.7772 23 48.153C23 56.5289 29.7772 63.3061 38.153 63.3061C41.6888 63.3061 44.9302 62.085 47.4999 60.0646C44.0034 57.3282 41.7329 52.9932 41.7329 48.153Z" fill="#EB001B"></path><path d="M71.9999 48.1532C71.9999 56.529 65.2227 63.3062 56.8468 63.3062C53.3111 63.3062 50.0696 62.0851 47.5 60.0647C51.0357 57.2842 53.267 52.9933 53.267 48.1532C53.267 43.313 50.9916 39.0172 47.5 36.2416C50.0647 34.2212 53.3062 33.0001 56.8419 33.0001C65.2227 33.0001 71.9999 39.8214 71.9999 48.1532Z" fill="#F79E1B"></path></svg> 