<?xml version="1.0" encoding="UTF-8"?> <svg xmlns="http://www.w3.org/2000/svg" width="76" height="76" viewBox="0 0 76 76" fill="none"><circle cx="38" cy="38" r="38" fill="white"></circle><path d="M31.3852 44.3011L33.499 31.9197H36.8801L34.7647 44.3011H31.3852ZM46.9793 32.1866C46.3096 31.9358 45.2598 31.6666 43.9492 31.6666C40.6084 31.6666 38.2551 33.3458 38.2352 35.7526C38.2162 37.5317 39.9152 38.5242 41.1975 39.1165C42.5136 39.7233 42.9559 40.1103 42.9497 40.6523C42.9414 41.4822 41.8988 41.8614 40.9271 41.8614C39.5738 41.8614 38.8549 41.6737 37.7446 41.2114L37.3089 41.0147L36.8344 43.7864C37.6241 44.132 39.0844 44.4314 40.6005 44.4469C44.1545 44.4469 46.4615 42.7869 46.4879 40.2168C46.5005 38.8083 45.5998 37.7365 43.6492 36.8528C42.4675 36.2801 41.7437 35.8978 41.7514 35.3179C41.7514 34.8033 42.364 34.2529 43.6876 34.2529C44.7932 34.2358 45.5941 34.4765 46.2181 34.7272L46.5211 34.8702L46.9793 32.1866M55.6796 31.9196H53.067C52.2577 31.9196 51.652 32.1401 51.2966 32.9463L46.2755 44.2929H49.8258C49.8258 44.2929 50.4062 42.7672 50.5375 42.4323C50.9256 42.4323 54.3744 42.4376 54.8675 42.4376C54.9686 42.871 55.2787 44.2929 55.2787 44.2929H58.416L55.6796 31.9192V31.9196ZM51.5345 39.9147C51.8141 39.2013 52.8816 36.4536 52.8816 36.4536C52.8616 36.4866 53.1591 35.7367 53.3298 35.2719L53.5582 36.3394C53.5582 36.3394 54.2057 39.2949 54.341 39.9147H51.5345ZM28.515 31.9196L25.205 40.3631L24.8523 38.6472C24.2361 36.6692 22.3162 34.5263 20.1699 33.4534L23.1965 44.2814L26.7737 44.2773L32.0963 31.9194H28.515" fill="#1E589A"></path><path d="M22.1199 31.9192H16.6681L16.625 32.1768C20.8663 33.2017 23.6728 35.6784 24.838 38.654L23.6525 32.9642C23.4478 32.1803 22.8543 31.9463 22.12 31.9189" fill="#F2AE14"></path></svg> 